#!OML:ASF H:\Punching\Project 1\Capture day 1\Session 1\female.ASF
:FULLY-SPECIFIED
:DEGREES
1407
root -1.364 15.4669 9.18684 15.3471 -13.9425 -1.272
lowerback 2.21773 -1.51437 0.140954
upperback -4.15347 -2.08201 -0.998149
thorax -5.58433 -1.06786 -0.965942
lowerneck -7.92772 9.00951 15.7366
upperneck 19.648 12.0423 -10.1518
head 9.04751 5.94271 -4.69909
rclavicle -8.94531e-016 2.3059e-014
rhumerus -30.1382 36.7595 -85.2162
rradius 98.6376
rwrist -16.0438
rhand -7.37579 -9.27677
rfingers 7.12502
rthumb 18.5094 -38.4162
lclavicle -8.94531e-016 2.3059e-014
lhumerus -34.4897 -12.8092 72.3895
lradius 82.0517
lwrist 5.34252
lhand -7.95558 16.0851
lfingers 7.12502
lthumb 17.9516 45.2766
rfemur -14.1177 3.95061 15.1434
rtibia 26.6373
rfoot -22.4881 -15.6768
rtoes -11.2389
lfemur -36.8223 -11.9977 3.88137
ltibia 17.1538
lfoot 3.94123 29.6229
ltoes 12.0421
1408
root -1.43885 15.4815 9.10152 15.2616 -13.3671 -1.22158
lowerback 2.09283 -1.53918 0.358461
upperback -4.17983 -2.10516 -1.01455
thorax -5.54987 -1.08926 -1.10603
lowerneck -8.02466 8.88886 15.5379
upperneck 19.8445 11.8701 -9.98703
head 9.08366 5.8604 -4.63273
rclavicle -1.15295e-014 1.59028e-014
rhumerus -31.3467 36.1934 -85.7369
rradius 96.786
rwrist -15.8261
rhand -7.47869 -9.27471
rfingers 7.12502
rthumb 18.4104 -38.4235
lclavicle -1.15295e-014 1.59028e-014
lhumerus -35.7575 -11.7629 72.6604
lradius 81.782
lwrist 5.54656
lhand -8.04537 16.2328
lfingers 7.12502
lthumb 17.8652 45.4322
rfemur -14.2082 3.93968 15.5838
rtibia 26.7162
rfoot -22.4007 -16.0495
rtoes -10.6887
lfemur -36.7535 -13.8291 5.19441
ltibia 16.0458
lfoot 3.149 31.969
ltoes 14.619
1409
root -1.51027 15.4946 9.01886 15.174 -12.8223 -1.1845
lowerback 1.97776 -1.55947 0.571479
upperback -4.21096 -2.12271 -1.02404
thorax -5.52574 -1.10754 -1.23656
lowerneck -8.10745 8.77097 15.361
upperneck 20.0416 11.7003 -9.82257
head 9.12008 5.78134 -4.56996
rclavicle -9.93923e-015 5.56597e-015
rhumerus -32.5435 35.5934 -86.2389
rradius 94.9134
rwrist -15.5955
rhand -7.56089 -9.37084
rfingers 7.12502
rthumb 18.3313 -38.5271
lclavicle -9.93923e-015 5.56597e-015
lhumerus -37.056 -10.7206 72.9088
lradius 81.4563
lwrist 5.79103
lhand -8.24386 16.3739
lfingers 7.12502
lthumb 17.6742 45.5906
rfemur -14.3115 3.94947 16.0086
rtibia 26.8114
rfoot -22.3109 -16.4047
rtoes -10.149
lfemur -36.7703 -15.5712 6.4322
ltibia 15.2175
lfoot 1.82478 34.0428
ltoes 17.0989
1410
root -1.57728 15.507 8.9394 15.0756 -12.3207 -1.15056
lowerback 1.87323 -1.57141 0.778561
upperback -4.24267 -2.12974 -1.03198
thorax -5.50786 -1.12031 -1.36264
lowerneck -8.17693 8.65513 15.2033
upperneck 20.2373 11.5325 -9.66092
head 9.15607 5.70489 -4.51129
rclavicle 2.84262e-014 5.56597e-015
rhumerus -33.7232 34.9558 -86.717
rradius 93.03
rwrist -15.4028
rhand -7.61905 -9.5972
rfingers 7.12502
rthumb 18.2754 -38.7587
lclavicle 2.84262e-014 5.56597e-015
lhumerus -38.3798 -9.68368 73.1358
lradius 81.0728
lwrist 6.05154
lhand -8.51422 16.522
lfingers 7.12502
lthumb 17.414 45.762
rfemur -14.4111 3.96907 16.4018
rtibia 26.9078
rfoot -22.2281 -16.7228
rtoes -9.61188
lfemur -36.8216 -17.0328 7.43724
ltibia 14.6934
lfoot 0.256335 35.5255
ltoes 19.2247
1411
root -1.63957 15.5193 8.86293 14.9715 -11.8666 -1.10977
lowerback 1.77416 -1.57351 0.9741
upperback -4.27348 -2.1246 -1.04243
thorax -5.49152 -1.1266 -1.48558
lowerneck -8.24866 8.54176 15.0577
upperneck 20.4344 11.3655 -9.49781
head 9.19454 5.62984 -4.45367
rclavicle 4.35338e-014 -1.98785e-014
rhumerus -34.8679 34.2764 -87.1606
rradius 91.1463
rwrist -15.3
rhand -7.65557 -9.96643
rfingers 7.12502
rthumb 18.2402 -39.1312
lclavicle 4.35338e-014 -1.98785e-014
lhumerus -39.7123 -8.6521 73.3358
lradius 80.6314
lwrist 6.31713
lhand -8.82219 16.7002
lfingers 7.12502
lthumb 17.1176 45.9662
rfemur -14.508 3.9972 16.7526
rtibia 26.9952
rfoot -22.1514 -17.0025
rtoes -9.06566
lfemur -36.8484 -18.0414 8.07289
ltibia 14.45
lfoot -1.08472 36.215
ltoes 20.6662
1412
root -1.69685 15.532 8.78935 14.862 -11.4569 -1.05357
lowerback 1.68277 -1.56277 1.16068
upperback -4.30174 -2.10336 -1.06175
thorax -5.47633 -1.12473 -1.6136
lowerneck -8.33618 8.42816 14.916
upperneck 20.634 11.1936 -9.3283
head 9.23679 5.55312 -4.39441
rclavicle -1.9133e-014 5.56597e-015
rhumerus -35.9782 33.5349 -87.5649
rradius 89.2726
rwrist -15.2878
rhand -7.70139 -10.4244
rfingers 7.12502
rthumb 18.1961 -39.5933
lclavicle -1.9133e-014 5.56597e-015
lhumerus -41.0358 -7.64052 73.5112
lradius 80.1199
lwrist 6.56619
lhand -9.13538 16.9072
lfingers 7.12502
lthumb 16.8161 46.199
rfemur -14.598 4.02339 17.0534
rtibia 27.0666
rfoot -22.0796 -17.2433
rtoes -8.51519
lfemur -36.7876 -18.497 8.25034
ltibia 14.4341
lfoot -1.79431 36.0912
ltoes 21.206
1413
root -1.74932 15.5457 8.71831 14.748 -11.0818 -0.965315
lowerback 1.59557 -1.54342 1.32233
upperback -4.32695 -2.07244 -1.09195
thorax -5.4593 -1.1172 -1.73951
lowerneck -8.44905 8.31882 14.7798
upperneck 20.8437 11.0232 -9.15694
head 9.28846 5.47714 -4.33418
rclavicle -1.20762e-014 3.57812e-015
rhumerus -37.0514 32.7264 -87.9224
rradius 87.4212
rwrist -15.348
rhand -7.75246 -10.9343
rfingers 7.12502
rthumb 18.147 -40.1078
lclavicle -1.20762e-014 3.57812e-015
lhumerus -42.3527 -6.6329 73.6659
lradius 79.5499
lwrist 6.77952
lhand -9.43 17.1723
lfingers 7.12502
lthumb 16.5325 46.488
rfemur -14.6837 4.03237 17.2908
rtibia 27.1235
rfoot -22.0149 -17.4484
rtoes -7.95827
lfemur -36.6013 -18.3788 7.93541
ltibia 14.5795
lfoot -1.72215 35.2573
ltoes 20.8514
1414
root -1.79774 15.56 8.64968 14.6274 -10.7438 -0.848534
lowerback 1.5203 -1.50689 1.46063
upperback -4.35217 -2.02021 -1.13434
thorax -5.44756 -1.09839 -1.86604
lowerneck -8.57427 8.20091 14.6308
upperneck 21.0524 10.838 -8.9728
head 9.33926 5.39435 -4.26895
rclavicle 3.15571e-014 4.09496e-014
rhumerus -38.1049 31.8295 -88.2277
rradius 85.6067
rwrist -15.4465
rhand -7.85542 -11.4374
rfingers 7.12502
rthumb 18.0479 -40.62
lclavicle 3.15571e-014 4.09496e-014
lhumerus -43.641 -5.67126 73.8057
lradius 78.8758
lwrist 6.99039
lhand -9.73551 17.3449
lfingers 7.12502
lthumb 16.2383 46.6849
rfemur -14.7607 4.03516 17.4704
rtibia 27.1692
rfoot -21.9547 -17.6216
rtoes -7.4066
lfemur -36.2831 -17.7966 7.21767
ltibia 14.8341
lfoot -1.13186 33.9308
ltoes 19.7581
1415
root -1.84287 15.5746 8.58314 14.5038 -10.4273 -0.705632
lowerback 1.45149 -1.45995 1.56578
upperback -4.37729 -1.95566 -1.17993
thorax -5.43738 -1.07212 -1.97792
lowerneck -8.70904 8.07753 14.4717
upperneck 21.2596 10.6451 -8.78784
head 9.39049 5.30728 -4.20247
rclavicle 3.97569e-016 1.82882e-014
rhumerus -39.1478 30.8437 -88.4727
rradius 83.8464
rwrist -15.5259
rhand -8.00931 -11.9102
rfingers 7.12502
rthumb 17.8999 -41.1065
lclavicle 3.97569e-016 1.82882e-014
lhumerus -44.9064 -4.75209 73.942
lradius 78.1266
lwrist 7.21246
lhand -10.0536 17.5313
lfingers 7.12502
lthumb 15.9321 46.896
rfemur -14.8329 4.0231 17.6009
rtibia 27.2091
rfoot -21.902 -17.7705
rtoes -6.86699
lfemur -35.8639 -16.8671 6.1977
ltibia 15.1663
lfoot -0.26591 32.2826
ltoes 18.2317
1416
root -1.88534 15.5892 8.51867 14.3661 -10.1323 -0.541312
lowerback 1.39847 -1.40036 1.63416
upperback -4.3959 -1.87549 -1.22504
thorax -5.4269 -1.03639 -2.06933
lowerneck -8.85619 7.94621 14.2946
upperneck 21.4614 10.4421 -8.60299
head 9.44053 5.21402 -4.13403
rclavicle -1.48095e-014 1.78906e-014
rhumerus -40.1722 29.7721 -88.6418
rradius 82.1291
rwrist -15.5438
rhand -8.22448 -12.2711
rfingers 7.12502
rthumb 17.6928 -41.4862
lclavicle -1.48095e-014 1.78906e-014
lhumerus -46.1277 -3.88687 74.0808
lradius 77.2766
lwrist 7.47007
lhand -10.3991 17.6541
lfingers 7.12502
lthumb 15.5993 47.0451
rfemur -14.8872 4.00555 17.6898
rtibia 27.2445
rfoot -21.854 -17.9016
rtoes -6.35851
lfemur -35.3684 -15.7479 4.99564
ltibia 15.5696
lfoot 0.61042 30.5099
ltoes 16.5869
1417
root -1.92621 15.6033 8.45583 14.2294 -9.85516 -0.367731
lowerback 1.3518 -1.32926 1.66308
upperback -4.41411 -1.78105 -1.26134
thorax -5.41686 -0.991609 -2.13014
lowerneck -9.00611 7.80598 14.0995
upperneck 21.6523 10.2299 -8.42214
head 9.4861 5.11478 -4.06513
rclavicle 2.07233e-014 5.96354e-015
rhumerus -41.1738 28.627 -88.7302
rradius 80.4264
rwrist -15.4841
rhand -8.49445 -12.4493
rfingers 7.12502
rthumb 17.433 -41.6876
lclavicle 2.07233e-014 5.96354e-015
lhumerus -47.3082 -3.07636 74.2242
lradius 76.3283
lwrist 7.76435
lhand -10.7945 17.6856
lfingers 7.12502
lthumb 15.2184 47.1059
rfemur -14.9488 3.99249 17.7533
rtibia 27.2978
rfoot -21.8233 -18.0241
rtoes -5.87286
lfemur -34.8645 -14.543 3.72115
ltibia 16.0832
lfoot 1.30514 28.7077
ltoes 15.0405
1418
root -1.96562 15.6171 8.39473 14.0915 -9.58515 -0.185672
lowerback 1.31056 -1.25356 1.65207
upperback -4.42964 -1.68141 -1.28539
thorax -5.40484 -0.942136 -2.15596
lowerneck -9.15536 7.66015 13.8941
upperneck 21.8277 10.0147 -8.25691
head 9.52682 5.01203 -4.00035
rclavicle 6.36111e-015 5.1684e-015
rhumerus -42.1437 27.4217 -88.7332
rradius 78.7257
rwrist -15.3424
rhand -8.81248 -12.4394
rfingers 7.12502
rthumb 17.1269 -41.7045
lclavicle 6.36111e-015 5.1684e-015
lhumerus -48.4455 -2.3123 74.3722
lradius 75.2866
lwrist 8.11003
lhand -11.2155 17.6401
lfingers 7.12502
lthumb 14.8129 47.0906
rfemur -15.0017 3.97289 17.7952
rtibia 27.3456
rfoot -21.8017 -18.1367
rtoes -5.41056
lfemur -34.356 -13.3172 2.42117
ltibia 16.6756
lfoot 1.82408 26.9289
ltoes 13.5988
